<svg width="512" height="512" viewBox="0 0 512 512" fill="none" xmlns="http://www.w3.org/2000/svg">
<g clip-path="url(#clip0_1_36)">
<path d="M495.936 257.456C495.92 124.96 388.512 17.552 256 17.552C123.488 17.552 16.064 124.976 16.064 257.488C16.064 376.768 103.104 475.712 217.12 494.288L218.496 494.48V326.832H157.568V257.456H218.496V204.624C218.192 201.952 218.032 198.848 218.032 195.712C218.032 148.944 255.952 111.024 302.72 111.024C304.976 111.024 307.216 111.12 309.44 111.28L309.152 111.264C328.336 111.536 346.896 113.232 365.008 116.256L362.864 115.952V174.992H332.592C331.216 174.8 329.632 174.688 328.032 174.688C308.88 174.688 293.344 190.208 293.344 209.376C293.344 210.464 293.392 211.536 293.488 212.608L293.472 212.464V257.456H360.016L349.376 326.832H293.472V494.48C408.88 475.696 495.92 376.736 495.936 257.456Z" fill="black"/>
</g>
<defs>
<clipPath id="clip0_1_36">
<rect width="512" height="512" fill="white"/>
</clipPath>
</defs>
</svg>
