<svg width="512" height="512" viewBox="0 0 512 512" fill="none" xmlns="http://www.w3.org/2000/svg">
<g clip-path="url(#clip0_1_2)">
<g clip-path="url(#clip1_1_2)">
<path fill-rule="evenodd" clip-rule="evenodd" d="M256 0C397.389 0 512 117.502 512 262.475C512 378.417 438.733 476.773 337.075 511.512C324.096 514.098 319.488 505.901 319.488 498.912C319.488 490.26 319.795 461.998 319.795 426.875C319.795 402.401 311.603 386.428 302.413 378.287C359.424 371.785 419.328 349.588 419.328 248.775C419.328 220.103 409.395 196.706 392.96 178.325C395.622 171.695 404.403 144.997 390.451 108.85C390.451 108.85 368.998 101.817 320.128 135.762C299.674 129.951 277.76 127.027 256 126.925C234.24 127.027 212.352 129.951 191.923 135.762C143.002 101.817 121.498 108.85 121.498 108.85C107.597 144.997 116.378 171.695 119.014 178.325C102.656 196.706 92.6465 220.103 92.6465 248.775C92.6465 349.332 152.422 371.87 209.28 378.5C201.958 385.054 195.328 396.615 193.024 413.587C178.432 420.295 141.363 431.903 118.528 391.787C118.528 391.787 104.986 366.568 79.2832 364.725C79.2832 364.725 54.3232 364.393 77.5424 380.675C77.5424 380.675 94.3104 388.739 105.958 419.075C105.958 419.075 120.986 465.922 192.205 450.05C192.333 471.989 192.563 492.666 192.563 498.912C192.563 505.85 187.853 513.969 175.078 511.537C73.3439 476.849 0 378.443 0 262.475C0 117.502 114.637 0 256 0Z" fill="black"/>
</g>
</g>
<defs>
<clipPath id="clip0_1_2">
<rect width="512" height="512" fill="white"/>
</clipPath>
<clipPath id="clip1_1_2">
<rect width="512" height="512" fill="white"/>
</clipPath>
</defs>
</svg>
