<svg width="512" height="512" viewBox="0 0 512 512" fill="none" xmlns="http://www.w3.org/2000/svg">
<g clip-path="url(#clip0_1_4)">
<path fill-rule="evenodd" clip-rule="evenodd" d="M256 384C326.692 384 384 326.692 384 256C384 185.308 326.692 128 256 128C185.308 128 128 185.308 128 256C128 326.692 185.308 384 256 384ZM256 341.333C303.127 341.333 341.333 303.127 341.333 256C341.333 208.872 303.127 170.667 256 170.667C208.872 170.667 170.667 208.872 170.667 256C170.667 303.127 208.872 341.333 256 341.333Z" fill="#0F0F0F"/>
<path d="M384 106.667C372.218 106.667 362.667 116.218 362.667 128C362.667 139.782 372.218 149.333 384 149.333C395.782 149.333 405.333 139.782 405.333 128C405.333 116.218 395.782 106.667 384 106.667Z" fill="#0F0F0F"/>
<path fill-rule="evenodd" clip-rule="evenodd" d="M35.2845 91.2226C21.3333 118.603 21.3333 154.447 21.3333 226.133V285.867C21.3333 357.553 21.3333 393.397 35.2845 420.777C47.5562 444.862 67.1377 464.444 91.2226 476.715C118.603 490.667 154.447 490.667 226.133 490.667H285.867C357.553 490.667 393.397 490.667 420.777 476.715C444.862 464.444 464.444 444.862 476.715 420.777C490.667 393.397 490.667 357.553 490.667 285.867V226.133C490.667 154.447 490.667 118.603 476.715 91.2226C464.444 67.1377 444.862 47.5563 420.777 35.2845C393.397 21.3333 357.553 21.3333 285.867 21.3333H226.133C154.447 21.3333 118.603 21.3333 91.2226 35.2845C67.1377 47.5563 47.5562 67.1377 35.2845 91.2226ZM285.867 64H226.133C189.586 64 164.741 64.0333 145.538 65.6021C126.832 67.1304 117.266 69.9006 110.593 73.3007C94.5363 81.482 81.482 94.5363 73.3007 110.593C69.9006 117.266 67.1304 126.832 65.6021 145.538C64.0333 164.741 64 189.586 64 226.133V285.867C64 322.415 64.0333 347.258 65.6021 366.462C67.1304 385.169 69.9006 394.735 73.3007 401.408C81.482 417.463 94.5363 430.517 110.593 438.699C117.266 442.099 126.832 444.87 145.538 446.398C164.741 447.966 189.586 448 226.133 448H285.867C322.415 448 347.258 447.966 366.462 446.398C385.169 444.87 394.735 442.099 401.408 438.699C417.463 430.517 430.517 417.463 438.699 401.408C442.099 394.735 444.87 385.169 446.398 366.462C447.966 347.258 448 322.415 448 285.867V226.133C448 189.586 447.966 164.741 446.398 145.538C444.87 126.832 442.099 117.266 438.699 110.593C430.517 94.5363 417.463 81.482 401.408 73.3007C394.735 69.9006 385.169 67.1304 366.462 65.6021C347.258 64.0333 322.415 64 285.867 64Z" fill="#0F0F0F"/>
</g>
<defs>
<clipPath id="clip0_1_4">
<rect width="512" height="512" fill="white"/>
</clipPath>
</defs>
</svg>
