<svg width="512" height="512" viewBox="0 0 512 512" fill="none" xmlns="http://www.w3.org/2000/svg">
<g clip-path="url(#clip0_1_3)">
<g clip-path="url(#clip1_1_3)">
<path d="M472 0H40C17.9 0 0 17.9 0 40V472C0 494.1 17.9 512 40 512H472C494.1 512 512 494.1 512 472V40C512 17.9 494.1 0 472 0ZM184.4 363.1H134.5V203.4H184.4V363.1ZM158.1 183.4H157.7C139.6 183.4 127.9 171.2 127.9 155.7C127.9 139.9 140 128 158.4 128C176.8 128 188.1 139.9 188.5 155.7C188.6 171.1 176.9 183.4 158.1 183.4ZM384 363.1H327.4V280.5C327.4 258.9 318.6 244.1 299.1 244.1C284.2 244.1 275.9 254.1 272.1 263.7C270.7 267.1 270.9 271.9 270.9 276.8V363.1H214.8C214.8 363.1 215.5 216.7 214.8 203.4H270.9V228.5C274.2 217.5 292.1 201.9 320.7 201.9C356.2 201.9 384 224.9 384 274.3V363.1Z" fill="black"/>
</g>
</g>
<defs>
<clipPath id="clip0_1_3">
<rect width="512" height="512" fill="white"/>
</clipPath>
<clipPath id="clip1_1_3">
<rect width="512" height="512" fill="white"/>
</clipPath>
</defs>
</svg>
